<svg viewBox="0 0 512 512" xmlns="http://www.w3.org/2000/svg">
  <!-- 背景（緑） -->
  <rect width="512" height="512" fill="#22c55e" rx="64"/>

  <!-- ネコ本体（中央に配置、スケール10倍） -->
  <g transform="translate(96, 48) scale(10)">
    <!-- 耳 -->
    <rect x="6" y="4" width="4" height="4" fill="#E8A45C"/>
    <rect x="22" y="4" width="4" height="4" fill="#E8A45C"/>
    <rect x="7" y="5" width="2" height="2" fill="#FFD1DC"/>
    <rect x="23" y="5" width="2" height="2" fill="#FFD1DC"/>
    <!-- 頭 -->
    <rect x="8" y="6" width="16" height="12" fill="#E8A45C"/>
    <rect x="6" y="8" width="2" height="8" fill="#E8A45C"/>
    <rect x="24" y="8" width="2" height="8" fill="#E8A45C"/>
    <!-- 目 -->
    <rect x="10" y="10" width="4" height="4" fill="#333"/>
    <rect x="18" y="10" width="4" height="4" fill="#333"/>
    <rect x="11" y="11" width="2" height="2" fill="#fff"/>
    <rect x="19" y="11" width="2" height="2" fill="#fff"/>
    <!-- 鼻 -->
    <rect x="14" y="14" width="4" height="2" fill="#FF6B6B"/>
    <!-- 口 -->
    <rect x="13" y="16" width="2" height="2" fill="#333"/>
    <rect x="17" y="16" width="2" height="2" fill="#333"/>
    <!-- 体 -->
    <rect x="10" y="18" width="12" height="8" fill="#E8A45C"/>
    <!-- 足 -->
    <rect x="10" y="26" width="4" height="2" fill="#E8A45C"/>
    <rect x="18" y="26" width="4" height="2" fill="#E8A45C"/>
    <!-- しっぽ -->
    <rect x="22" y="20" width="4" height="2" fill="#E8A45C"/>
    <rect x="24" y="18" width="2" height="2" fill="#E8A45C"/>
  </g>
</svg>
